# xmcd
# 
# Track frame offsets:
#     150
#     13181
#     22583
#     35355
#     49497
#     64533
#     75052
#     86861
#     100873
#     116764
#     130580
# 
# Disc length: 1931
# 
# Revision: 1
# Processed by: cddbd v1.5.2PL0 Copyright (c) Steve Scherf et al.
# Submitted via: fre:ac v1.0.27
# 
DISCID=7b07890b
DTITLE=George Strait - Icon 2
DYEAR=2011
DGENRE=Country
TTITLE0=Amarillo By Morning
TTITLE1=Right Or Wrong
TTITLE2=The Chair
TTITLE3=Ocean Front Property
TTITLE4=All My Ex's Live In Texas
TTITLE5=If You Aint Lovin' (You Aint Livin')
TTITLE6=Ace In The Hole
TTITLE7=Love Without End, Amen
TTITLE8=I Cross My Heart
TTITLE9=Easy Come, Easy Go
TTITLE10=Check Yes Or No
EXTD=
EXTT0=
EXTT1=
EXTT2=
EXTT3=
EXTT4=
EXTT5=
EXTT6=
EXTT7=
EXTT8=
EXTT9=
EXTT10=
PLAYORDER=
